<svg width="70" height="70" viewBox="0 0 70 70" fill="none" xmlns="http://www.w3.org/2000/svg">
<circle cx="35" cy="35" r="35" fill="#CAF291"/>
<path d="M20.7145 39.1667C19.1513 36.6067 18.3271 33.6641 18.3333 30.6646C18.3333 21.5521 25.7958 14.1667 35 14.1667C44.2041 14.1667 51.6666 21.5521 51.6666 30.6646C51.6728 33.6641 50.8486 36.6067 49.2854 39.1667" stroke="black" stroke-width="3.125" stroke-linecap="round"/>
<path d="M41.2499 49.5833L40.979 50.9312C40.6874 52.4041 40.5395 53.1396 40.2082 53.7229C39.6978 54.622 38.8713 55.2992 37.8895 55.6229C37.254 55.8333 36.4999 55.8333 34.9999 55.8333C33.4999 55.8333 32.7457 55.8333 32.1103 55.625C31.1281 55.3007 30.3016 54.6228 29.7915 53.7229C29.4603 53.1396 29.3124 52.4041 29.0207 50.9312L28.7499 49.5833M25.3811 45.6208C25.1895 45.0458 25.0936 44.7562 25.104 44.5229C25.1158 44.2816 25.1973 44.049 25.3385 43.853C25.4797 43.657 25.6747 43.5062 25.8999 43.4187C26.1165 43.3333 26.4207 43.3333 27.0249 43.3333H42.9749C43.5811 43.3333 43.8832 43.3333 44.0999 43.4166C44.3253 43.5043 44.5205 43.6554 44.6618 43.8518C44.8031 44.0481 44.8843 44.2813 44.8957 44.5229C44.9061 44.7562 44.8103 45.0437 44.6186 45.6208C44.2645 46.6854 44.0874 47.2187 43.8145 47.65C43.2436 48.5512 42.3488 49.1992 41.3145 49.4604C40.8186 49.5833 40.2603 49.5833 39.1415 49.5833H30.8582C29.7395 49.5833 29.179 49.5833 28.6853 49.4583C27.6513 49.1977 26.7565 48.5505 26.1853 47.65C25.9124 47.2187 25.7353 46.6854 25.3811 45.6208Z" stroke="black" stroke-width="3.125"/>
<path d="M35 43.3333V32.9167" stroke="black" stroke-width="3.125" stroke-linecap="round" stroke-linejoin="round"/>
</svg>
